<svg xmlns="http://www.w3.org/2000/svg" xmlns:xlink="http://www.w3.org/1999/xlink" width="500" zoomAndPan="magnify" viewBox="0 0 375 374.999991" height="500" preserveAspectRatio="xMidYMid meet" version="1.0"><defs><clipPath id="8e00911e68"><path d="M 69 9.0625 L 306 9.0625 L 306 161 L 69 161 Z M 69 9.0625 " clip-rule="nonzero"/></clipPath></defs><path fill="#333333" d="M 371.820312 143.117188 L 371.820312 143.113281 L 371.816406 143.09375 C 369.097656 135.296875 364.433594 128.226562 358.113281 122.65625 L 346.5 112.378906 C 345.847656 111.800781 345.183594 111.25 344.5 110.703125 L 320.8125 91.921875 L 320.8125 128.929688 L 327.078125 133.902344 L 327.101562 133.917969 C 328.753906 135.230469 330.296875 136.640625 331.753906 138.140625 L 327.371094 141.667969 L 188.914062 253.003906 L 48.519531 141.660156 L 43.820312 137.933594 C 45.199219 136.507812 46.664062 135.152344 48.230469 133.902344 L 54.785156 128.632812 L 54.785156 91.4375 L 30.054688 111.308594 L 17.332031 122.65625 C 11.058594 128.25 6.433594 135.316406 3.746094 143.089844 L 3.722656 143.132812 L 3.730469 143.136719 C 2 148.175781 1.074219 153.503906 1.074219 158.949219 L 1.074219 324.46875 C 1.074219 347.363281 19.644531 365.933594 42.539062 365.933594 L 333.074219 365.933594 C 355.96875 365.933594 374.535156 347.363281 374.535156 324.46875 L 374.535156 159.082031 C 374.53125 153.582031 373.585938 148.199219 371.820312 143.117188 Z M 30.070312 319.382812 L 30.070312 171.800781 C 30.070312 169.332031 30.277344 166.894531 30.640625 164.496094 L 116.707031 232.75 Z M 53.527344 336.9375 L 139.578125 250.882812 L 179.964844 282.910156 C 182.613281 285.015625 185.789062 286.050781 188.980469 286.050781 C 192.195312 286.050781 195.417969 284.984375 198.054688 282.847656 L 237.039062 251.503906 L 322.46875 336.9375 Z M 345.535156 318.996094 L 259.769531 233.230469 L 344.964844 164.710938 C 345.332031 167.113281 345.535156 169.558594 345.535156 172.027344 Z M 345.535156 318.996094 " fill-opacity="1" fill-rule="nonzero"/><g clip-path="url(#8e00911e68)"><path fill="#333333" d="M 69.683594 60.34375 L 69.683594 139.429688 L 95.226562 159.6875 L 95.226562 34.605469 L 280.390625 34.605469 L 280.390625 160.332031 L 305.933594 139.792969 L 305.933594 21.832031 C 305.933594 14.777344 300.21875 9.0625 293.164062 9.0625 L 82.453125 9.0625 C 75.398438 9.0625 69.683594 14.777344 69.683594 21.832031 Z M 69.683594 60.34375 " fill-opacity="1" fill-rule="nonzero"/></g><path fill="#333333" d="M 198.5625 144.171875 L 198.109375 144.171875 C 194.59375 153.753906 188.226562 158.542969 179 158.542969 C 172.082031 158.542969 166.5 156.03125 162.265625 151.019531 C 158.023438 146.003906 155.90625 139.054688 155.90625 130.179688 C 155.90625 118.695312 158.839844 109.355469 164.707031 102.15625 C 170.574219 94.960938 177.648438 91.359375 185.925781 91.359375 C 193.398438 91.359375 198.089844 94.292969 199.996094 100.160156 L 200.300781 100.160156 L 201.054688 92.714844 L 217.984375 92.714844 C 215.730469 114.078125 214.597656 128.050781 214.597656 134.621094 C 214.597656 141.644531 216.503906 145.152344 220.3125 145.152344 C 224.324219 145.152344 227.640625 142.496094 230.246094 137.179688 C 232.851562 131.863281 234.160156 124.917969 234.160156 116.339844 C 234.160156 104.605469 230.421875 94.988281 222.949219 87.488281 C 215.476562 79.988281 205.046875 76.238281 191.65625 76.238281 C 177.308594 76.238281 165.386719 81.242188 155.882812 91.246094 C 146.382812 101.25 141.625 113.449219 141.625 127.847656 C 141.625 141.789062 145.824219 152.773438 154.226562 160.800781 C 162.628906 168.824219 174.222656 172.835938 189.023438 172.835938 C 200.3125 172.835938 210.640625 170.683594 220.015625 166.363281 L 220.015625 180.734375 C 211.441406 184.394531 200.40625 186.226562 186.914062 186.226562 C 168.40625 186.226562 153.34375 180.921875 141.734375 170.3125 C 130.121094 159.703125 124.320312 145.449219 124.320312 127.542969 C 124.320312 109.289062 130.515625 93.9375 142.902344 81.5 C 155.289062 69.066406 171.242188 62.839844 190.753906 62.839844 C 208.808594 62.839844 223.417969 67.667969 234.578125 77.320312 C 245.738281 86.976562 251.320312 99.703125 251.320312 115.5 C 251.320312 128.492188 247.90625 138.910156 241.085938 146.761719 C 234.261719 154.613281 225.8125 158.535156 215.730469 158.535156 C 210.761719 158.535156 206.730469 157.207031 203.613281 154.550781 C 200.492188 151.894531 198.8125 148.4375 198.5625 144.171875 Z M 188.550781 104.449219 C 184.039062 104.449219 180.363281 107.019531 177.53125 112.160156 C 174.695312 117.304688 173.28125 123.261719 173.28125 130.03125 C 173.28125 134.84375 174.246094 138.59375 176.175781 141.273438 C 178.105469 143.960938 180.605469 145.296875 183.664062 145.296875 C 188.378906 145.296875 192.089844 142.761719 194.800781 137.699219 C 197.511719 132.636719 198.867188 125.863281 198.867188 117.386719 C 198.867188 113.378906 197.929688 110.214844 196.046875 107.910156 C 194.160156 105.605469 191.660156 104.449219 188.550781 104.449219 Z M 188.550781 104.449219 " fill-opacity="1" fill-rule="nonzero"/></svg>