<svg xmlns="http://www.w3.org/2000/svg" xmlns:xlink="http://www.w3.org/1999/xlink" width="500" zoomAndPan="magnify" viewBox="0 0 375 374.999991" height="500" preserveAspectRatio="xMidYMid meet" version="1.0"><path fill="#333333" d="M 84.359375 0 L 290.421875 0 C 313.707031 0 334.796875 9.445312 350.175781 24.824219 C 365.332031 39.980469 375 61.292969 375 84.359375 L 375 290.421875 C 375 313.707031 365.332031 334.796875 350.175781 350.175781 C 334.796875 365.332031 313.707031 375 290.421875 375 L 84.359375 375 C 61.292969 375 39.984375 365.332031 24.824219 350.175781 C 9.445312 334.796875 0 313.707031 0 290.421875 L 0 84.359375 C 0 61.292969 9.445312 39.980469 24.824219 24.824219 C 39.984375 9.445312 61.292969 0 84.359375 0 Z M 290.421875 33.390625 L 84.359375 33.390625 C 70.296875 33.390625 57.558594 39.105469 48.332031 48.332031 C 39.105469 57.558594 33.390625 70.296875 33.390625 84.359375 L 33.390625 290.421875 C 33.390625 304.480469 39.105469 317.222656 48.332031 326.449219 C 57.558594 335.894531 70.296875 341.609375 84.359375 341.609375 L 290.421875 341.609375 C 304.480469 341.609375 317.222656 335.894531 326.449219 326.449219 C 335.894531 317.222656 341.609375 304.480469 341.609375 290.421875 L 341.609375 84.359375 C 341.609375 70.296875 335.894531 57.558594 326.449219 48.332031 C 317.222656 39.105469 304.480469 33.390625 290.421875 33.390625 Z M 290.421875 33.390625 " fill-opacity="1" fill-rule="nonzero"/><path fill="#333333" d="M 292.617188 65.464844 C 297.230469 65.464844 301.625 67.222656 304.480469 70.296875 C 307.558594 73.375 309.535156 77.546875 309.535156 82.160156 C 309.535156 86.773438 307.558594 91.167969 304.480469 94.023438 C 301.625 97.101562 297.230469 99.078125 292.617188 99.078125 C 288.003906 99.078125 283.832031 97.101562 280.753906 94.023438 C 277.679688 91.167969 275.921875 86.773438 275.921875 82.160156 C 275.921875 77.546875 277.679688 73.375 280.753906 70.296875 C 283.832031 67.222656 288.003906 65.464844 292.617188 65.464844 Z M 292.617188 65.464844 " fill-opacity="1" fill-rule="nonzero"/><path fill="#333333" d="M 187.390625 96.441406 C 212.652344 96.441406 235.28125 106.765625 251.757812 123.023438 C 268.234375 139.5 278.558594 162.347656 278.558594 187.390625 C 278.558594 212.652344 268.234375 235.28125 251.757812 251.757812 C 235.28125 268.234375 212.652344 278.558594 187.390625 278.558594 C 162.347656 278.558594 139.5 268.234375 123.023438 251.757812 C 106.765625 235.28125 96.441406 212.652344 96.441406 187.390625 C 96.441406 162.347656 106.765625 139.5 123.023438 123.023438 C 139.5 106.765625 162.347656 96.441406 187.390625 96.441406 Z M 228.03125 146.96875 C 217.707031 136.644531 203.207031 130.050781 187.390625 130.050781 C 171.574219 130.050781 157.292969 136.644531 146.96875 146.96875 C 136.644531 157.292969 130.050781 171.574219 130.050781 187.390625 C 130.050781 203.207031 136.644531 217.707031 146.96875 228.03125 C 157.292969 238.355469 171.574219 244.726562 187.390625 244.726562 C 203.207031 244.726562 217.707031 238.355469 228.03125 228.03125 C 238.355469 217.707031 244.726562 203.207031 244.726562 187.390625 C 244.726562 171.574219 238.355469 157.292969 228.03125 146.96875 Z M 228.03125 146.96875 " fill-opacity="1" fill-rule="nonzero"/></svg>