<svg xmlns="http://www.w3.org/2000/svg" xmlns:xlink="http://www.w3.org/1999/xlink" width="500" zoomAndPan="magnify" viewBox="0 0 375 374.999991" height="500" preserveAspectRatio="xMidYMid meet" version="1.0"><defs><clipPath id="f7513a79d4"><path d="M 0 14.21875 L 375 14.21875 L 375 360.71875 L 0 360.71875 Z M 0 14.21875 " clip-rule="nonzero"/></clipPath></defs><g clip-path="url(#f7513a79d4)"><path fill="#333333" d="M 201.679688 14.21875 C 105.996094 14.21875 28.433594 91.78125 28.433594 187.464844 C 28.421875 197.992188 29.363281 208.4375 31.261719 218.792969 C 33.15625 229.152344 35.976562 239.25 39.71875 249.09375 L 1.164062 321.390625 C 0.886719 321.902344 0.691406 322.445312 0.566406 323.015625 C 0.445312 323.582031 0.40625 324.160156 0.445312 324.738281 C 0.480469 325.320312 0.601562 325.886719 0.796875 326.433594 C 0.996094 326.980469 1.261719 327.492188 1.601562 327.964844 C 1.941406 328.4375 2.339844 328.851562 2.796875 329.214844 C 3.253906 329.574219 3.753906 329.867188 4.292969 330.089844 C 4.828125 330.308594 5.386719 330.453125 5.964844 330.519531 C 6.546875 330.582031 7.121094 330.566406 7.695312 330.472656 L 86.828125 317.179688 C 90.742188 320.65625 94.808594 323.945312 99.023438 327.050781 C 103.238281 330.160156 107.585938 333.066406 112.066406 335.777344 C 116.542969 338.488281 121.136719 340.992188 125.84375 343.285156 C 130.550781 345.578125 135.355469 347.652344 140.25 349.507812 C 145.144531 351.363281 150.117188 352.992188 155.160156 354.394531 C 160.203125 355.800781 165.300781 356.972656 170.453125 357.910156 C 175.605469 358.851562 180.789062 359.554688 186.003906 360.023438 C 191.21875 360.492188 196.441406 360.722656 201.679688 360.714844 C 297.363281 360.714844 374.929688 283.144531 374.929688 187.464844 C 374.929688 91.859375 297.28125 14.21875 201.679688 14.21875 Z M 202.195312 315.53125 C 198.019531 315.550781 193.855469 315.371094 189.699219 314.984375 C 185.542969 314.597656 181.414062 314.007812 177.316406 313.21875 C 173.214844 312.425781 169.167969 311.4375 165.164062 310.246094 C 161.164062 309.058594 157.230469 307.675781 153.363281 306.101562 C 149.496094 304.527344 145.71875 302.769531 142.023438 300.824219 C 138.332031 298.878906 134.742188 296.753906 131.257812 294.457031 C 127.773438 292.160156 124.40625 289.699219 121.164062 287.070312 C 117.921875 284.445312 114.8125 281.664062 111.84375 278.730469 L 64.4375 287.292969 C 63.867188 287.390625 63.296875 287.40625 62.726562 287.34375 C 62.152344 287.28125 61.601562 287.140625 61.066406 286.925781 C 60.53125 286.710938 60.039062 286.425781 59.582031 286.074219 C 59.128906 285.722656 58.730469 285.3125 58.386719 284.851562 C 58.042969 284.386719 57.773438 283.886719 57.570312 283.347656 C 57.367188 282.808594 57.238281 282.253906 57.191406 281.679688 C 57.140625 281.105469 57.171875 280.535156 57.277344 279.96875 C 57.386719 279.40625 57.570312 278.863281 57.828125 278.351562 L 81.769531 232.523438 C 78.976562 225.089844 76.894531 217.460938 75.523438 209.636719 C 74.15625 201.8125 73.519531 193.929688 73.621094 185.988281 C 74.414062 115.667969 131.351562 59.398438 201.679688 59.398438 C 272.410156 59.398438 329.746094 116.738281 329.746094 187.464844 C 329.746094 258.136719 272.863281 315.253906 202.195312 315.53125 Z M 202.195312 315.53125 " fill-opacity="1" fill-rule="nonzero"/></g><path fill="#333333" d="M 183.574219 144.28125 L 177.984375 120.671875 C 177.824219 120 177.628906 119.339844 177.402344 118.6875 C 177.171875 118.035156 176.910156 117.398438 176.613281 116.773438 C 176.316406 116.148438 175.988281 115.542969 175.628906 114.953125 C 175.269531 114.363281 174.878906 113.796875 174.460938 113.246094 C 174.039062 112.699219 173.59375 112.171875 173.117188 111.671875 C 172.640625 111.171875 172.140625 110.695312 171.617188 110.246094 C 171.089844 109.800781 170.542969 109.378906 169.972656 108.988281 C 169.40625 108.597656 168.816406 108.238281 168.210938 107.910156 C 167.601562 107.578125 166.980469 107.285156 166.339844 107.019531 C 165.703125 106.757812 165.050781 106.527344 164.386719 106.332031 C 163.726562 106.140625 163.054688 105.980469 162.375 105.855469 C 161.695312 105.730469 161.011719 105.644531 160.324219 105.589844 C 159.632812 105.539062 158.945312 105.523438 158.253906 105.542969 C 157.5625 105.566406 156.875 105.621094 156.191406 105.714844 C 155.507812 105.808594 154.832031 105.9375 154.160156 106.101562 C 153.488281 106.265625 152.828125 106.464844 152.179688 106.699219 L 139.285156 111.339844 C 138.242188 111.714844 137.238281 112.175781 136.273438 112.722656 C 135.308594 113.269531 134.394531 113.890625 133.535156 114.589844 C 132.675781 115.289062 131.878906 116.058594 131.152344 116.890625 C 130.421875 117.726562 129.765625 118.613281 129.183594 119.558594 C 128.605469 120.503906 128.109375 121.492188 127.695312 122.519531 C 127.28125 123.546875 126.957031 124.605469 126.722656 125.6875 C 126.488281 126.769531 126.347656 127.867188 126.296875 128.972656 C 126.246094 130.082031 126.289062 131.183594 126.425781 132.285156 C 130.921875 168.796875 151.605469 257.125 246.734375 276.53125 C 247.675781 276.722656 248.621094 276.84375 249.578125 276.898438 C 250.535156 276.953125 251.492188 276.9375 252.445312 276.847656 C 253.402344 276.761719 254.34375 276.609375 255.277344 276.382812 C 256.207031 276.160156 257.117188 275.867188 258.007812 275.511719 C 258.898438 275.15625 259.753906 274.734375 260.582031 274.253906 C 261.410156 273.769531 262.199219 273.230469 262.949219 272.632812 C 263.699219 272.035156 264.398438 271.386719 265.054688 270.6875 C 265.710938 269.984375 266.308594 269.242188 266.855469 268.453125 L 274.253906 257.761719 C 274.621094 257.230469 274.960938 256.683594 275.273438 256.121094 C 275.589844 255.558594 275.871094 254.980469 276.128906 254.390625 C 276.386719 253.800781 276.613281 253.195312 276.808594 252.582031 C 277.007812 251.96875 277.171875 251.347656 277.308594 250.71875 C 277.445312 250.089844 277.550781 249.453125 277.625 248.816406 C 277.699219 248.175781 277.738281 247.53125 277.75 246.886719 C 277.761719 246.242188 277.742188 245.601562 277.6875 244.957031 C 277.636719 244.316406 277.550781 243.679688 277.4375 243.042969 C 277.320312 242.410156 277.175781 241.785156 276.996094 241.164062 C 276.820312 240.546875 276.613281 239.9375 276.378906 239.335938 C 276.140625 238.738281 275.875 238.152344 275.582031 237.578125 C 275.285156 237.003906 274.964844 236.449219 274.617188 235.90625 C 274.265625 235.363281 273.890625 234.839844 273.492188 234.335938 C 273.089844 233.832031 272.667969 233.347656 272.21875 232.886719 C 271.769531 232.421875 271.300781 231.980469 270.808594 231.566406 C 270.320312 231.148438 269.808594 230.757812 269.277344 230.390625 C 269.238281 230.359375 269.195312 230.332031 269.152344 230.304688 L 252.886719 219.230469 C 252.015625 218.632812 251.097656 218.113281 250.136719 217.664062 C 249.179688 217.21875 248.191406 216.847656 247.171875 216.5625 C 246.152344 216.273438 245.121094 216.070312 244.066406 215.949219 C 243.015625 215.828125 241.964844 215.789062 240.90625 215.839844 C 239.847656 215.886719 238.800781 216.023438 237.765625 216.238281 C 236.730469 216.457031 235.71875 216.757812 234.734375 217.136719 C 233.746094 217.519531 232.796875 217.976562 231.882812 218.511719 C 230.96875 219.046875 230.105469 219.648438 229.289062 220.324219 C 228.476562 220.996094 227.621094 221.597656 226.714844 222.128906 C 225.804688 222.664062 224.863281 223.121094 223.882812 223.503906 C 222.902344 223.882812 221.898438 224.183594 220.867188 224.40625 C 219.839844 224.625 218.800781 224.761719 217.75 224.8125 C 216.699219 224.867188 215.652344 224.835938 214.605469 224.71875 C 213.558594 224.605469 212.53125 224.40625 211.515625 224.125 C 210.503906 223.84375 209.519531 223.484375 208.5625 223.046875 C 207.605469 222.605469 206.691406 222.09375 205.820312 221.507812 C 195.925781 214.839844 182.53125 203.789062 173.835938 188.464844 C 173.347656 187.609375 172.925781 186.722656 172.570312 185.804688 C 172.214844 184.886719 171.933594 183.949219 171.71875 182.988281 C 171.503906 182.03125 171.359375 181.058594 171.292969 180.078125 C 171.222656 179.097656 171.226562 178.117188 171.304688 177.136719 C 171.378906 176.15625 171.53125 175.1875 171.753906 174.226562 C 171.976562 173.269531 172.265625 172.332031 172.628906 171.417969 C 172.992188 170.503906 173.421875 169.621094 173.914062 168.773438 C 174.410156 167.921875 174.964844 167.113281 175.578125 166.34375 L 179.761719 161.144531 C 180.703125 159.976562 181.496094 158.71875 182.148438 157.367188 C 182.800781 156.019531 183.289062 154.613281 183.621094 153.152344 C 183.949219 151.691406 184.113281 150.210938 184.105469 148.714844 C 184.097656 147.214844 183.921875 145.738281 183.574219 144.28125 Z M 183.574219 144.28125 " fill-opacity="1" fill-rule="nonzero"/></svg>